<svg xmlns="http://www.w3.org/2000/svg" fill="#ffffff" viewBox="0 0 1516.62 1270.31" xmlns:v="https://vecta.io/nano"><path d="M800.55 384.29H352.79a12.84 12.84 0 1 0 0 25.67h447.76a12.84 12.84 0 0 0 0-25.67zm293.51-112.77v-2.09l2.07-.33c14.71-2.31 36-8.8 53.84-26.63 25.17-25.15 27.21-56.3 27.89-66.53 2.25-34.17-12-59.46-31.78-94.45a445.54 445.54 0 0 0-55.24-77 12.92 12.92 0 0 0-9.62-4.49 12.62 12.62 0 0 0-9.5 4.42l-.22.25h-.06a444.68 444.68 0 0 0-55.09 76.77c-19.75 35-34 60.28-31.77 94.47.67 10.23 2.71 41.35 27.88 66.52 17.88 17.84 39.16 24.33 53.86 26.64l2.07.32v49.14h-209v-130.4l1.91-.43a112.61 112.61 0 0 0 75.31-59.27A131.92 131.92 0 0 0 922 23.24a3.7 3.7 0 0 0-3.12-1.75H776.7a3.7 3.7 0 0 0-3.15 1.77 132.61 132.61 0 0 0-13.73 106.66c14.23 27.94 39.88 48.1 72 56.36l1.84.48v131.82H659.8a12.84 12.84 0 1 0 0 25.67h447.76a12.84 12.84 0 1 0 0-25.67h-13.5v-47.06zM848.2 162.68l-.33-.05c-26.77-3.52-50.37-19.33-63.13-42.29A100.9 100.9 0 0 1 792.2 46l.69-1.31h110.32l.69 1.31a99.52 99.52 0 0 1 8 72l-.09.36-.2.31h0l-.32.49a85.6 85.6 0 0 1-62.71 43.4zm233-37.59a12.85 12.85 0 0 0-12.84 12.83v105.36l-3-.64c-14.12-3-25.51-9-34.81-18.32-18.28-18.24-19.83-41.33-20.41-50-1.7-25.43 8.06-44 28.51-80.2 10.64-18.83 23.93-37.89 40.62-58.26l1.89-2.31 1.89 2.31c16.66 20.32 29.94 39.38 40.6 58.26 20.44 36.23 30.2 54.77 28.51 80.12-.59 8.76-2.14 31.86-20.41 50.1-9.29 9.28-20.68 15.28-34.8 18.32l-3 .64V137.92a12.85 12.85 0 0 0-12.72-12.83zM151.49 499.77Q130.91 488 104.2 488H32a13.59 13.59 0 0 0-14.08 14.08V755.9A13.6 13.6 0 0 0 32 770a13.62 13.62 0 0 0 14.08-14.1v-85.56h58.12q26.7 0 47.29-11.73a84.12 84.12 0 0 0 32.13-32.13q11.55-20.4 11.55-46.75 0-27.08-11.55-47.65a83.76 83.76 0 0 0-32.13-32.31zm8.12 112.81a58.11 58.11 0 0 1-22.56 22.56q-14.45 8.13-32.85 8.12H46.08V515.11h58.12q18.4 0 32.85 8.3a59.47 59.47 0 0 1 22.56 22.75q8.12 14.43 8.12 33.57 0 18.41-8.12 32.85zm90.79-40.07q-6.5 0-10.29 3.79c-2.52 2.53-3.79 6-3.79 10.29V755.9q0 6.5 3.79 10.28 3.79 3.78 10.29 3.82a13.43 13.43 0 0 0 9.93-3.8q3.8-3.78 3.79-10.28V586.59c0-4.34-1.26-7.76-3.79-10.29a13.43 13.43 0 0 0-9.93-3.79zm13.54-71.66a19.93 19.93 0 0 0-13.54-5.23 20.39 20.39 0 0 0-13.9 5.23q-6 5.23-5.95 14.26a19.15 19.15 0 0 0 5.77 14.08A18.73 18.73 0 0 0 250 535a19.7 19.7 0 0 0 19.85-19.85q.04-9.05-5.91-14.3zm198.18 82.31q-20.4-12.46-47.83-12.46-27.8 0-49.1 13a91.34 91.34 0 0 0-33.39 35.56q-12.09 22.56-12.09 52.16 0 29.25 12.81 52A92.13 92.13 0 0 0 367.9 759q22.56 12.82 51.81 12.82a103.37 103.37 0 0 0 35.37-6.68q18.42-6.68 30.33-16.78a10.42 10.42 0 0 0 4.15-8.67q-.18-5.05-4.87-9.39a12.72 12.72 0 0 0-8.67-2.7 14.68 14.68 0 0 0-9 3.43q-8 6.85-21.12 11.37a80.37 80.37 0 0 1-26.17 4.51q-21.66 0-38.27-9.75a70.44 70.44 0 0 1-26.17-26.71 74.75 74.75 0 0 1-9.14-30h145.76a13.06 13.06 0 0 0 9.38-3.43 12.14 12.14 0 0 0 3.61-9.21q0-28.15-11.19-50.18a84.17 84.17 0 0 0-31.59-34.47zm-107.94 49.09a65.2 65.2 0 0 1 24-26.89q15.53-9.75 36.1-9.75 20.22 0 34.84 9.39a61.89 61.89 0 0 1 22.56 26 78.35 78.35 0 0 1 7.14 26.35H346.64a81.41 81.41 0 0 1 7.54-25.1zM661.94 575q-9-4.68-25.64-4.69a73.66 73.66 0 0 0-38.08 10.11A77.91 77.91 0 0 0 574.57 602v-15.77c0-4.34-1.2-7.7-3.61-10.11s-5.77-3.61-10.1-3.61-7.71 1.21-10.11 3.61-3.61 5.77-3.61 10.11v170q0 6.5 3.61 10.11 3.61 3.61 10.11 3.66 6.5 0 10.1-3.61 3.6-3.61 3.61-10.11V648.32q0-17 9.21-29.24 9.21-12.24 24.91-18.23 15.7-6 35.92-4.15 6.14.36 11 .72a15.09 15.09 0 0 0 8.3-1.45q3.44-1.8 4.87-7.22 2.22-9.01-6.84-13.75zM924 572.51q-9.75 0-13.36 10.47L864.79 723 823.3 583.34a15.68 15.68 0 0 0-4.87-7.94 13.26 13.26 0 0 0-8.85-2.89 12.72 12.72 0 0 0-8.84 3.07 16.73 16.73 0 0 0-4.88 7.76l-42.74 140.48L707.06 583a15.2 15.2 0 0 0-5.42-8 14.16 14.16 0 0 0-8.3-2.52c-5.05 0-8.43 1.75-10.11 5.23s-1.8 8.25-.36 14.26l56.32 169a13.3 13.3 0 0 0 5 6.5 14.75 14.75 0 0 0 16.25.18 12.34 12.34 0 0 0 5-6.68l43.32-143.71L852.18 761a11.25 11.25 0 0 0 4.87 6.5 15 15 0 0 0 8.49 2.53 13.37 13.37 0 0 0 8.12-2.53 13.73 13.73 0 0 0 4.87-6.5l56.32-169q2.88-7.57 0-13.54-2.88-5.97-10.85-5.95zm163.73 97.65q-15.7-8.48-42.78-12.82-19.86-3.24-30.87-7.94-11.01-4.7-15.52-10.83a23.69 23.69 0 0 1-4.51-14.44q0-12.27 11.91-20.4 11.91-8.13 31.77-8.12 15.52 0 27.44 4.88a54.75 54.75 0 0 1 20.93 15.34 16.16 16.16 0 0 0 9.57 5.23 14.52 14.52 0 0 0 9.93-1.62q5.06-3.26 5.77-8.3a12.68 12.68 0 0 0-2.88-9.75 76.26 76.26 0 0 0-28.34-22.39q-17.52-8.31-41.7-8.31a100.44 100.44 0 0 0-35.74 6.14q-16.25 6.13-26 18.41-9.75 12.28-9.71 30.7 0 19.84 17 34.29 17 14.45 53.43 20.22 28.16 4.69 40.43 13.17 12.27 8.48 12.28 21.48-.37 13-12.28 22.2-11.91 9.2-38.63 9.21a88.28 88.28 0 0 1-31.58-5.42q-14.26-5.4-22.93-15.52a14.38 14.38 0 0 0-19.49-1.8 14.6 14.6 0 0 0-5.42 9.38 11.61 11.61 0 0 0 3.19 9.75q13 14.45 33.94 21.66a128.53 128.53 0 0 0 42.23 7.22q22.75 0 40.26-7.22 17.51-7.22 27.43-20a47.2 47.2 0 0 0 9.93-29.78 48 48 0 0 0-6.68-24.73q-6.67-11.41-22.38-19.89zm209.92 74.54h-108.92l117.61-150.83.14-.18.19-.24h0a14.13 14.13 0 0 0 2.18-8.29q0-12.63-12.64-12.63h-133.94q-12.64 0-12.63 12.63.01 12.63 12.63 12.64H1272l-118.39 150.52.15.08c-1.78 2.09-2.68 5.07-2.68 8.94q0 12.64 12.63 12.64h133.94q12.63 0 12.63-12.64 0-12.64-12.63-12.64zm210.46-171.11q-11.92-5.05-17.33 6.5l-67.18 148.08-70.36-148.44q-2.54-5.41-7.22-7a14.91 14.91 0 0 0-17.33 8.12c-1.21 3.13-1 6.5.72 10.11l80.5 166.78.17.28-35.9 79.14q-5.42 11.91 6.86 17.33a17.69 17.69 0 0 0 6.49 1.44q6.85 0 10.47-8.3l117-257q5.38-11.98-6.89-17.04zM105.1 939.83q-25.27-3.6-40.25-11-14.98-7.4-21.48-17.7a41.44 41.44 0 0 1-6.5-22.56q0-23.1 17.33-35.2 17.33-12.1 45.8-12.09 16.24.36 27.8 4.69a60.42 60.42 0 0 1 19.68 11.73 81.9 81.9 0 0 1 13.53 15.71 15.09 15.09 0 0 0 19.5 6.13 12.54 12.54 0 0 0 6.32-8.3q1.26-5.41-2.35-11.19a95.83 95.83 0 0 0-19.68-22.56 97.85 97.85 0 0 0-64.43-22.93q-26.73 0-47.29 8.85-20.56 8.85-32.27 25.09-11.74 16.25-11.74 38.26 0 30.69 23.83 51.81 23.83 21.12 66.1 26.17 34.67 4.34 50.9 20.21 16.23 15.87 16.25 37.91 0 17.33-8.49 29.42a53 53 0 0 1-23.28 18.41q-14.81 6.33-33.93 6.32a106 106 0 0 1-31.77-4.51 76.14 76.14 0 0 1-24.91-12.82 58 58 0 0 1-15.88-18.77 16.74 16.74 0 0 0-7.41-7.58 13.13 13.13 0 0 0-9.92-1.09q-6.49 1.82-9.21 6.68c-1.8 3.25-1.75 6.81.18 10.65a83.6 83.6 0 0 0 22 28.52 103.16 103.16 0 0 0 34.12 19 132.31 132.31 0 0 0 42.78 6.68 121.07 121.07 0 0 0 36.64-5.41 91.4 91.4 0 0 0 30-15.7 70.08 70.08 0 0 0 19.86-25.46q7-15.15 7-34.65 0-33.93-21.84-55-21.84-21.07-66.99-27.72zm226.34 132.49h-9.75q-17 0-27.79-11.74-10.79-11.74-10.83-30.14v-96.39h40.79a12.59 12.59 0 0 0 9-3.43 11.24 11.24 0 0 0 3.61-8.48 11.67 11.67 0 0 0-3.61-8.84 12.59 12.59 0 0 0-9-3.43h-40.79v-56A13.59 13.59 0 0 0 269 839.83a13.12 13.12 0 0 0-9.93 4 14 14 0 0 0-3.79 10.11v56h-23.47a12.58 12.58 0 0 0-9 3.43 11.64 11.64 0 0 0-3.61 8.84 11.2 11.2 0 0 0 3.61 8.48 12.58 12.58 0 0 0 9 3.43h23.46v96.39q0 20.22 8.66 35.92a64.94 64.94 0 0 0 23.65 24.73q15 9 34.11 9h7.59a15.8 15.8 0 0 0 10.82-3.79 12.54 12.54 0 0 0 4.34-9.92 14.49 14.49 0 0 0-3.61-10.11 12.1 12.1 0 0 0-9.39-4.02zM526.2 913.84q-22.58-13-51.44-13-28.86 0-51.63 13a94.36 94.36 0 0 0-35.74 35.74q-13 22.74-13 52 0 28.89 13 51.62a94.36 94.36 0 0 0 35.74 35.74q22.74 13 51.63 13 28.89 0 51.44-13a96.07 96.07 0 0 0 35.74-35.74q13.17-22.74 13.17-51.62-.36-29.23-13.35-52a94.74 94.74 0 0 0-35.56-35.74zm12.09 126.35a69.34 69.34 0 0 1-26 26.71q-16.6 9.75-37.54 9.75-20.94 0-37.55-9.75a70.58 70.58 0 0 1-26.2-26.71q-9.57-17-9.57-38.63 0-21.63 9.57-38.81a70.22 70.22 0 0 1 26.17-26.89q16.6-9.75 37.55-9.75 20.95 0 37.54 9.75a69 69 0 0 1 26 26.89q9.39 17.16 9.39 38.81 0 21.65-9.36 38.63zM776.19 914q-22.76-13.17-51.63-13.18-28.15 0-50.72 13a96.55 96.55 0 0 0-35.74 35.58q-13.17 22.56-13.53 50.72v170.39q0 6.49 3.79 10.29 3.79 3.8 10.28 3.79a13.45 13.45 0 0 0 9.93-3.79q3.79-3.79 3.79-10.29v-106.14a87.16 87.16 0 0 0 31.64 27.26q19.66 10.29 43.86 10.29 27.8 0 49.82-13.18a96.05 96.05 0 0 0 34.84-35.92q12.81-22.74 12.81-51.26 0-28.87-13.17-51.62A97.17 97.17 0 0 0 776.19 914zm12.09 126a70.37 70.37 0 0 1-26.17 26.89q-16.62 9.75-37.55 9.75a72.07 72.07 0 0 1-37.18-9.75 68.93 68.93 0 0 1-26-26.89q-9.39-17.15-9.39-38.45 0-21.66 9.39-38.63a70.94 70.94 0 0 1 63.17-36.82q20.94 0 37.55 9.93a72.08 72.08 0 0 1 26.17 26.89q9.56 17 9.57 38.63.01 21.31-9.56 38.45zM895 902.65q-6.5 0-10.29 3.79-3.79 3.79-3.79 10.29V1086q0 6.51 3.79 10.29 3.79 3.78 10.29 3.79a13.43 13.43 0 0 0 9.93-3.79q3.79-3.78 3.79-10.29V916.73q0-6.51-3.79-10.29a13.43 13.43 0 0 0-9.93-3.79zM908.49 831a20 20 0 0 0-13.49-5.25 20.39 20.39 0 0 0-13.9 5.24q-6 5.24-6 14.26a19.16 19.16 0 0 0 5.78 14.08 18.73 18.73 0 0 0 13.72 5.77 19.7 19.7 0 0 0 19.85-19.85q-.01-9.03-5.96-14.25zm198.18 82.3q-20.4-12.46-47.83-12.46-27.81 0-49.1 13a91.34 91.34 0 0 0-33.39 35.56q-12.11 22.56-12.09 52.16 0 29.24 12.81 52a92.08 92.08 0 0 0 35.38 35.56q22.56 12.83 51.8 12.82a103.43 103.43 0 0 0 35.38-6.68q18.42-6.67 30.33-16.79a10.41 10.41 0 0 0 4.15-8.66q-.19-5.05-4.88-9.39a12.68 12.68 0 0 0-8.66-2.7 14.73 14.73 0 0 0-9 3.43q-7.93 6.86-21.11 11.37a80.38 80.38 0 0 1-26.18 4.51q-21.66 0-38.26-9.75a70.61 70.61 0 0 1-26.18-26.71 75 75 0 0 1-9.13-30h145.77a13.07 13.07 0 0 0 9.39-3.43 12.14 12.14 0 0 0 3.61-9.21q0-28.16-11.19-50.18a84.18 84.18 0 0 0-31.62-34.45zm-107.94 49.09a65 65 0 0 1 24-26.89q15.51-9.75 36.1-9.75 20.21 0 34.83 9.39a61.84 61.84 0 0 1 22.57 26 78.29 78.29 0 0 1 7.14 26.35H991.19a81.14 81.14 0 0 1 7.54-25.1zm280.32-89.71a12.66 12.66 0 0 0 9.38-3.61l40.44-40.79a9.91 9.91 0 0 0 3.06-4.33 15 15 0 0 0 .91-5.06 14.32 14.32 0 0 0-4-10.28 13.41 13.41 0 0 0-10.11-4.16 13.26 13.26 0 0 0-9.75 4l-40.79 40.79a14.3 14.3 0 0 0 10.83 23.46zm83.95 69.68a78.19 78.19 0 0 0-32-31.23q-20.22-10.65-45.84-10.65-23.48 0-42.6 10.29a83.19 83.19 0 0 0-23.11 18.16v-12.2q0-6.51-3.79-10.29a13.4 13.4 0 0 0-9.92-3.79q-6.51 0-10.29 3.79-3.78 3.79-3.79 10.29v169.67a13.39 13.39 0 0 0 3.79 9.92q3.78 3.79 10.29 3.79a13 13 0 0 0 13.71-13.71V979.54a46.21 46.21 0 0 1 8.31-27.08 56.91 56.91 0 0 1 22.56-18.77 72.76 72.76 0 0 1 32-6.86q18.4 0 33 7.22a54.19 54.19 0 0 1 23.1 21.66q8.47 14.44 8.49 36.82v93.87a13.21 13.21 0 0 0 4 9.74 13.66 13.66 0 0 0 10.11 4 13.56 13.56 0 0 0 13.71-13.71v-93.9q-.02-29.59-11.73-50.17zm-559.74 300.32l1.28-.61a18.49 18.49 0 0 0 10.18-17 20.46 20.46 0 0 0-2.7-10.54 19 19 0 0 0-7.48-7.14 22.67 22.67 0 0 0-10.9-2.57h-15a4.09 4.09 0 0 0-2.92 1.13 4 4 0 0 0-1.18 3v56.33a4 4 0 0 0 4.1 4.11 3.92 3.92 0 0 0 3-1.19 4 4 0 0 0 1.14-2.92v-20.74h10.9 1.31l14.23 22.88a4.38 4.38 0 0 0 1.56 1.51 4.12 4.12 0 0 0 2 .49 3.81 3.81 0 0 0 3.66-2 4.08 4.08 0 0 0-.42-4.31zm-9.62-5.83h-10.9v-24.27h10.9a14.32 14.32 0 0 1 6.81 1.57 11.69 11.69 0 0 1 4.62 4.42 12.68 12.68 0 0 1 1.69 6.55 11.19 11.19 0 0 1-1.69 6.06 11.57 11.57 0 0 1-4.61 4.18 15.08 15.08 0 0 1-6.82 1.49zm62.36-10.26a20.74 20.74 0 0 0-11-2.86 22.33 22.33 0 0 0-11.52 2.94 20.82 20.82 0 0 0-7.8 8.13 24.76 24.76 0 0 0-2.82 12 23.51 23.51 0 0 0 3 11.89 21.44 21.44 0 0 0 8.26 8.13 24.87 24.87 0 0 0 20.13 1.5 23.72 23.72 0 0 0 7-3.69 3 3 0 0 0 1.24-2.55 4 4 0 0 0-1.4-2.68 3.71 3.71 0 0 0-2.46-.84 4.4 4.4 0 0 0-2.61 1 15.24 15.24 0 0 1-4.4 2.26 16.71 16.71 0 0 1-13.73-1.13 15.32 15.32 0 0 1-7.5-11.1H862a3.63 3.63 0 0 0 2.67-1 3.42 3.42 0 0 0 1-2.52 25.82 25.82 0 0 0-2.49-11.55 19.06 19.06 0 0 0-7.18-7.93zm-24.1 11.93a13.77 13.77 0 0 1 5.12-5.72 14.69 14.69 0 0 1 7.94-2.1 12.92 12.92 0 0 1 7.16 1.93 12.72 12.72 0 0 1 4.59 5.31 17.53 17.53 0 0 1 1.49 5h-27.74a17.22 17.22 0 0 1 1.45-4.42zm71.29 7.37a35.63 35.63 0 0 0-9.79-3.06 33.36 33.36 0 0 1-6.76-1.82 7.33 7.33 0 0 1-3.13-2.17 4.68 4.68 0 0 1-.81-2.73 4.21 4.21 0 0 1 2.45-3.8 12.82 12.82 0 0 1 6.4-1.44 17.67 17.67 0 0 1 5.7.84 11.43 11.43 0 0 1 4.45 2.93 4.65 4.65 0 0 0 2.81 1.47 4.3 4.3 0 0 0 3-.54 3.28 3.28 0 0 0 1.46-2.39 3.63 3.63 0 0 0-1-2.72 16.8 16.8 0 0 0-6.66-5 24.16 24.16 0 0 0-9.61-1.78 24.51 24.51 0 0 0-8.16 1.36 14.42 14.42 0 0 0-6.26 4.18 10.6 10.6 0 0 0-2.39 7.09 10.46 10.46 0 0 0 3.85 8.14c2.54 2.21 6.64 3.85 12.18 4.9 4.21.7 7.18 1.66 8.83 2.86a5.26 5.26 0 0 1 2.44 4.34 5.19 5.19 0 0 1-2.55 4.19c-1.67 1.14-4.29 1.72-7.78 1.72a17.64 17.64 0 0 1-6.83-1.29 13.06 13.06 0 0 1-4.7-3 4 4 0 0 0-2.62-1.4 4.25 4.25 0 0 0-3.06 1 4 4 0 0 0-1.57 2.71 3.71 3.71 0 0 0 1 2.9 19.06 19.06 0 0 0 7.73 4.7 31.48 31.48 0 0 0 10.33 1.7 23.94 23.94 0 0 0 9.61-1.75 14.29 14.29 0 0 0 6.14-4.8 11.87 11.87 0 0 0 2.13-6.91 11.16 11.16 0 0 0-1.59-5.87 13.29 13.29 0 0 0-5.24-4.56zm36.57 15.56h-2.54a6.34 6.34 0 0 1-5-2.3 8.74 8.74 0 0 1-2-5.9v-20.58h7.63a3.71 3.71 0 0 0 2.62-1 3.21 3.21 0 0 0 1.07-2.48 3.32 3.32 0 0 0-1.07-2.56 3.75 3.75 0 0 0-2.62-1h-7.63v-11.88a3.9 3.9 0 0 0-4-4 3.77 3.77 0 0 0-2.84 1.15 4 4 0 0 0-1.1 2.88v11.88h-4.18a3.74 3.74 0 0 0-2.62 1 3.32 3.32 0 0 0-1.07 2.56 3.21 3.21 0 0 0 1.07 2.48 3.69 3.69 0 0 0 2.62 1h4.18v20.58a17.56 17.56 0 0 0 1.92 8.28 14.83 14.83 0 0 0 5.33 5.75 14.34 14.34 0 0 0 7.68 2.13h1.56a4.83 4.83 0 0 0 3.24-1.09 3.62 3.62 0 0 0 1.27-2.85 4.26 4.26 0 0 0-1-2.88 3.27 3.27 0 0 0-2.52-1.17zm53.72-26.45a23 23 0 0 0-39.71 0 23.16 23.16 0 0 0-3 11.77 23.91 23.91 0 0 0 2.87 11.72 21.86 21.86 0 0 0 7.75 8.21 21.53 21.53 0 0 0 21.91.09 21.22 21.22 0 0 0 5.19-4.47v3.15a3.9 3.9 0 0 0 4 4 4 4 0 0 0 3-1.14 3.92 3.92 0 0 0 1.14-2.88v-18.85h0a23.74 23.74 0 0 0-3.15-11.6zm-19.85 27.51a14.64 14.64 0 0 1-13.11-7.7 17.56 17.56 0 0 1 0-16.2 14.78 14.78 0 0 1 13.19-7.66 14.56 14.56 0 0 1 7.66 2 15 15 0 0 1 5.36 5.65 16.66 16.66 0 0 1 2 8.12 16.48 16.48 0 0 1-2 8 15 15 0 0 1-5.36 5.65 14.72 14.72 0 0 1-7.74 2.14zM1046 1224a3.9 3.9 0 0 0-4 4v23.62a9.3 9.3 0 0 1-1.72 5.47 12.29 12.29 0 0 1-4.58 3.9 14.44 14.44 0 0 1-6.57 1.45 15.25 15.25 0 0 1-6.82-1.49 11.15 11.15 0 0 1-4.77-4.54 15.26 15.26 0 0 1-1.77-7.74V1228a3.91 3.91 0 0 0-1.18-2.84 4 4 0 0 0-2.93-1.18 4 4 0 0 0-4 4v20.67a23.25 23.25 0 0 0 2.66 11.52 18 18 0 0 0 7.23 7.19 21.75 21.75 0 0 0 10.37 2.45 20.6 20.6 0 0 0 9.87-2.37 18.57 18.57 0 0 0 4.23-3.09v1a4 4 0 1 0 8 0V1228a3.9 3.9 0 0 0-4-4zm46.7 1c-1.54-1-3.86-1.43-6.9-1.43a17.84 17.84 0 0 0-9 2.33 18.55 18.55 0 0 0-4.63 3.75V1228a4 4 0 0 0-1-2.92 4.13 4.13 0 0 0-3-1 3.66 3.66 0 0 0-3.94 3.94v37.48a3.87 3.87 0 0 0 1.06 2.92 4 4 0 0 0 6.9-2.92v-24.19a9.18 9.18 0 0 1 2.24-6.23 12.09 12.09 0 0 1 6.11-3.62 21.15 21.15 0 0 1 8.83-.24 11.11 11.11 0 0 0 2.18.13 3.37 3.37 0 0 0 1.86-.62 3 3 0 0 0 1.08-1.9c.41-1.57-.19-2.83-1.79-3.83zm47.64 10a23 23 0 0 0-39.71 0 23.15 23.15 0 0 0-3 11.77 23.9 23.9 0 0 0 2.86 11.72 21.86 21.86 0 0 0 7.75 8.21 21.53 21.53 0 0 0 21.91.09 21.45 21.45 0 0 0 5.2-4.47v3.15a3.88 3.88 0 0 0 4 4 4 4 0 0 0 3-1.14 3.89 3.89 0 0 0 1.14-2.88v-18.85h0a23.74 23.74 0 0 0-3.15-11.6zm-19.85 27.51a14.67 14.67 0 0 1-13.11-7.7 17.56 17.56 0 0 1 0-16.2 14.76 14.76 0 0 1 5.45-5.61 15 15 0 0 1 7.74-2 14.56 14.56 0 0 1 7.66 2 14.94 14.94 0 0 1 5.36 5.65 16.55 16.55 0 0 1 2 8.12 16.38 16.38 0 0 1-2 8 14.94 14.94 0 0 1-5.36 5.65 14.7 14.7 0 0 1-7.74 2.09zm67.36-36.42a21.78 21.78 0 0 0-10.37-2.45 20.61 20.61 0 0 0-9.88 2.37 19 19 0 0 0-4.22 3.07v-1a4.1 4.1 0 0 0-6.9-2.92 3.88 3.88 0 0 0-1.15 2.92v37.4a4.11 4.11 0 0 0 7 2.88 4 4 0 0 0 1.1-2.88v-23.62a9.24 9.24 0 0 1 1.71-5.51 12.48 12.48 0 0 1 4.63-3.86 14.48 14.48 0 0 1 6.53-1.45 15.14 15.14 0 0 1 6.85 1.49 11.28 11.28 0 0 1 4.74 4.5 15.34 15.34 0 0 1 1.77 7.78v20.67a3.9 3.9 0 0 0 1.18 2.84 4 4 0 0 0 2.92 1.18 4 4 0 0 0 4-4v-20.7a23.36 23.36 0 0 0-2.66-11.52 18.05 18.05 0 0 0-7.25-7.19zm42.85 35.36h-2.55a6.32 6.32 0 0 1-5-2.3 8.74 8.74 0 0 1-2-5.9v-20.58h7.62a3.73 3.73 0 0 0 2.63-1 3.23 3.23 0 0 0 1.06-2.48 3.35 3.35 0 0 0-1.06-2.56 3.78 3.78 0 0 0-2.63-1h-7.62v-11.88a3.9 3.9 0 0 0-4-4 3.79 3.79 0 0 0-2.84 1.15 4 4 0 0 0-1.1 2.88v11.88h-4.17a3.76 3.76 0 0 0-2.63 1 3.32 3.32 0 0 0-1.07 2.56 3.21 3.21 0 0 0 1.07 2.48 3.72 3.72 0 0 0 2.63 1h4.17v20.58a17.56 17.56 0 0 0 1.92 8.28 14.86 14.86 0 0 0 5.34 5.75 14.31 14.31 0 0 0 7.67 2.13h1.56a4.81 4.81 0 0 0 3.24-1.09 3.59 3.59 0 0 0 1.27-2.85 4.21 4.21 0 0 0-1-2.88 3.26 3.26 0 0 0-2.51-1.17zm85.94 1.38l-9-9 6.69-7.09a3.78 3.78 0 0 0 1.18-2.64 3.45 3.45 0 0 0-1.35-2.47 2.48 2.48 0 0 0-2.42-.92 5.49 5.49 0 0 0-2.28 1.5l-6.53 6.92-14.75-14.72h0a57.84 57.84 0 0 0 5.77-5.27 18 18 0 0 0 3.45-5.16 16.26 16.26 0 0 0 1.2-5.92 13.81 13.81 0 0 0-2-7.35 15 15 0 0 0-5.38-5.17 15.59 15.59 0 0 0-7.79-1.92 16 16 0 0 0-7.66 1.84 14.1 14.1 0 0 0-5.38 5 13 13 0 0 0-2 7.06 16 16 0 0 0 1.5 6.79 21 21 0 0 0 4.23 5.93l4.18 4.18-.47.37a60.66 60.66 0 0 0-10 9.51 16.44 16.44 0 0 0-1.41 18.53 14.84 14.84 0 0 0 6.17 5.55 20.8 20.8 0 0 0 9.25 2 21.2 21.2 0 0 0 11.12-3 40.22 40.22 0 0 0 9.15-7.71l.7-.74 8.87 8.87c1.69 1.69 3.44 1.69 5.2 0a3.09 3.09 0 0 0 1-2.5 4.79 4.79 0 0 0-1.24-2.47zm-19.3-7.7a38.46 38.46 0 0 1-7.29 6.11 15.16 15.16 0 0 1-8.11 2.17c-3.2 0-5.71-.8-7.45-2.39s-2.63-3.89-2.63-6.87a11.12 11.12 0 0 1 1.16-4.93 20.78 20.78 0 0 1 3.37-4.78 48.72 48.72 0 0 1 5.21-4.85l1.12-.87 15.49 15.49zm-20.91-33.52a9.91 9.91 0 0 1-1-4.28 6.76 6.76 0 0 1 2.22-5 8 8 0 0 1 5.81-2.15 7.56 7.56 0 0 1 8.12 7.7 12.92 12.92 0 0 1-1.49 5.59 20.29 20.29 0 0 1-5.39 5.87l-.92.72-4.32-4.31a14.9 14.9 0 0 1-3.03-4.14zM1387 1234.4a15.11 15.11 0 0 0 5.54-4.91 13.34 13.34 0 0 0 2.3-7.65 16.19 16.19 0 0 0-2.42-8.82 16.76 16.76 0 0 0-6.61-6 20.6 20.6 0 0 0-9.5-2.15h-19.77a4.09 4.09 0 0 0-2.92 1.13 4 4 0 0 0-1.18 3v56.33a3.92 3.92 0 0 0 1.22 2.93 4.25 4.25 0 0 0 3 1.18h21.15a22.66 22.66 0 0 0 10.74-2.49 18.7 18.7 0 0 0 7.35-6.86 19 19 0 0 0 2.66-10.09 15.5 15.5 0 0 0-3.38-10.33 16.56 16.56 0 0 0-8.18-5.27zm-26.35-3.05v-18.77h15.66a12.18 12.18 0 0 1 7.67 2.33c2 1.53 3 3.86 3 6.93a8.62 8.62 0 0 1-3 7.07 11.84 11.84 0 0 1-7.67 2.44zm23.87 29a15.32 15.32 0 0 1-6.66 1.37h-17.21v-22.62h17.21a16.09 16.09 0 0 1 6.66 1.29 10.55 10.55 0 0 1 4.48 3.61 10.3 10.3 0 0 1 1.64 5.93 11.75 11.75 0 0 1-1.64 6.38 10.61 10.61 0 0 1-4.46 4.01zm65.94-25.35a23 23 0 0 0-39.71 0 23.15 23.15 0 0 0-3 11.77 23.9 23.9 0 0 0 2.86 11.72 21.86 21.86 0 0 0 7.75 8.21 21.53 21.53 0 0 0 21.91.09 21.45 21.45 0 0 0 5.2-4.47v3.15a3.88 3.88 0 0 0 4 4 4 4 0 0 0 3-1.14 3.92 3.92 0 0 0 1.14-2.88v-18.85h0a23.74 23.74 0 0 0-3.15-11.6zm-19.85 27.51a14.67 14.67 0 0 1-13.11-7.7 17.56 17.56 0 0 1 0-16.2 14.83 14.83 0 0 1 5.5-5.61 15 15 0 0 1 7.74-2 14.56 14.56 0 0 1 7.66 2 14.94 14.94 0 0 1 5.36 5.65 16.55 16.55 0 0 1 2 8.12 16.38 16.38 0 0 1-2 8 14.94 14.94 0 0 1-5.36 5.65 14.7 14.7 0 0 1-7.79 2.09zm63.31-37.51c-1.54-1-3.86-1.43-6.9-1.43a17.84 17.84 0 0 0-9 2.33 18.55 18.55 0 0 0-4.63 3.75V1228a4 4 0 0 0-1-2.92 4.13 4.13 0 0 0-3-1 3.66 3.66 0 0 0-3.94 3.94v37.48a3.87 3.87 0 0 0 1.06 2.92 4.69 4.69 0 0 0 5.89 0 4 4 0 0 0 1-2.88v-24.19a9.18 9.18 0 0 1 2.24-6.23 12.09 12.09 0 0 1 6.11-3.62 21.17 21.17 0 0 1 8.83-.24 11.11 11.11 0 0 0 2.18.13 3.37 3.37 0 0 0 1.86-.62 3 3 0 0 0 1.08-1.9c.42-1.61-.18-2.87-1.78-3.87z"></path></svg>